<svg width="423" height="423" viewBox="0 0 423 423" fill="none" xmlns="http://www.w3.org/2000/svg">
<path d="M381.271 42.25L42.0833 174.042L142.687 215.833C172.094 228.031 195.457 251.402 207.646 280.812L249.437 381.396L381.271 42.25ZM419.75 56.4583L287.917 395.646C279.583 417.104 255.604 428.083 234.354 420.229C229.176 418.317 224.449 415.355 220.47 411.53C216.49 407.705 213.344 403.098 211.229 398L169.417 297.375C161.283 277.778 145.706 262.208 126.104 254.083L25.5208 212.292C4.60415 203.604 -4.93752 179.458 4.20831 158.333C6.45518 153.17 9.70108 148.501 13.7592 144.597C17.8173 140.692 22.6075 137.629 27.8541 135.583L367.042 3.74998C374.41 0.788661 382.486 0.0577946 390.267 1.6482C398.047 3.23861 405.189 7.08019 410.804 12.6956C416.42 18.3109 420.261 25.4526 421.852 33.233C423.442 41.0135 422.711 49.0898 419.75 56.4583V56.4583Z" fill="white"/>
</svg>
