<svg width="418" height="376" viewBox="0 0 418 376" fill="none" xmlns="http://www.w3.org/2000/svg">
<path d="M405.812 65.1875L280.812 2.68752C277.918 1.23918 274.726 0.485107 271.49 0.485107C268.253 0.485107 265.061 1.23918 262.167 2.68752L146.5 60.5417L30.8125 2.68752C27.6355 1.09997 24.1053 0.350961 20.5574 0.511646C17.0094 0.672332 13.5615 1.73737 10.541 3.60561C7.52049 5.47386 5.02775 8.08326 3.29952 11.186C1.5713 14.2887 0.664973 17.7818 0.666628 21.3334V292.167C0.666628 300.063 5.12496 307.271 12.1875 310.813L137.187 373.313C140.082 374.761 143.274 375.515 146.51 375.515C149.747 375.515 152.939 374.761 155.833 373.313L271.5 315.458L387.187 373.292C390.355 374.894 393.883 375.654 397.43 375.497C400.977 375.34 404.423 374.272 407.437 372.396C413.583 368.583 417.333 361.896 417.333 354.667V83.8334C417.333 75.9375 412.875 68.7292 405.812 65.1875V65.1875ZM167.333 96.7084L250.667 55.0417V279.292L167.333 320.958V96.7084ZM42.3333 55.0417L125.667 96.7084V320.958L42.3333 279.292V55.0417ZM375.667 320.958L292.333 279.292V55.0417L375.667 96.7084V320.958Z" fill="white"/>
</svg>
